<svg width="28" height="31" viewBox="0 0 28 31" fill="none" xmlns="http://www.w3.org/2000/svg">
<path d="M8.5 5.49994C11.579 2.70086 16.3136 2.81352 19.2559 5.75589L21.5 7.99994L24.6569 11.1568C26.1571 12.657 27 14.6919 27 16.8136V25.9999C27 28.209 25.2091 29.9999 23 29.9999C20.7909 29.9999 19 28.209 19 25.9999V21.9999C19 21.0334 18.2165 20.2499 17.25 20.2499H14C12.2051 20.2499 10.75 21.705 10.75 23.4999V26.7499" stroke="#ADA785" stroke-width="2"/>
<path d="M6 8L3.34314 10.6569C1.84285 12.1571 1 14.192 1 16.3137V22C1 26.4183 4.58172 30 9 30H10" stroke="#ADA785" stroke-width="2"/>
</svg>
