<svg xmlns="http://www.w3.org/2000/svg" enable-background="new 0 0 48 48" viewBox="0 0 48 48" id="mastercard"><path fill="#f44336" d="M18,24c0-4.903,2.363-9.243,6-11.98C21.491,10.132,18.382,9,15,9C6.716,9,0,15.716,0,24
	c0,8.284,6.716,15,15,15c3.382,0,6.491-1.133,9-3.02C20.363,33.242,18,28.903,18,24z"></path><path fill="#ff9800" d="M33,9c-3.382,0-6.491,1.132-9,3.02c3.637,2.737,6,7.077,6,11.98s-2.363,9.242-6,11.98
	c2.509,1.888,5.618,3.02,9,3.02c8.284,0,15-6.716,15-15C48,15.716,41.284,9,33,9z"></path><ellipse cx="24" cy="24" fill="#ff7300" rx="6" ry="11.98"></ellipse></svg>