<svg width="33" height="36" viewBox="0 0 33 36" fill="none" xmlns="http://www.w3.org/2000/svg">
<path d="M6.16667 9.47824L4.51162 16.0984C4.46766 16.2743 4.37675 16.4348 4.24859 16.563L1.29289 19.5187C1.10536 19.7062 1 19.9606 1 20.2258V25.7002C1 26.2526 1.44786 26.7004 2.00024 26.7002L31.0002 26.6934C31.5524 26.6932 32 26.2456 32 25.6934V20.2191C32 19.9535 31.8943 19.6988 31.7064 19.5112L28.7231 16.5343C28.6129 16.4244 28.5299 16.2903 28.4807 16.1426L26.855 11.2655C26.8406 11.2222 26.8292 11.1785 26.8203 11.1338C26.7332 10.6988 26.2061 8.21525 25.1111 6.02646C24.3299 4.46494 22.0811 2.86817 21.7168 2.61632C21.6825 2.59261 21.6472 2.57218 21.6099 2.55348C17.6515 0.568309 15.4007 0.412187 11.4634 2.51218C11.378 2.5577 11.2986 2.61675 11.2302 2.68514L9.61111 4.30423L7.88889 6.02646" stroke="#ADA785" stroke-width="2"/>
<path d="M7.88892 30.145C14.9388 36.3641 18.7086 35.986 25.1111 30.145" stroke="#ADA785" stroke-width="2"/>
</svg>
