<svg width="23" height="20" viewBox="0 0 23 20" fill="none" xmlns="http://www.w3.org/2000/svg">
<path d="M11.77 10.2796L10.08 2.10965C9.96138 1.63315 9.67161 1.21694 9.2659 0.940323C8.86019 0.663702 8.3669 0.546004 7.88 0.60965H0.0599999L0 0.999649C6.08 2.45965 10.1 5.99965 11.77 10.2796ZM17.45 0.78965L12.51 13.3997L12 11.4997C10.3903 8.36859 7.97375 5.72417 5 3.83965L9.51 19.2496H14.84L22.78 0.78965H17.45Z" fill="white"/>
<path d="M10.08 2.10965C9.96138 1.63315 9.67161 1.21694 9.2659 0.940323C8.86019 0.663702 8.3669 0.546004 7.88 0.60965H0.0599999L0 0.999649C6.08 2.46965 10.1 5.99965 11.77 10.2896L10.08 2.10965Z" fill="white"/>
</svg>
